<svg width="468" height="466" viewBox="0 0 468 466" fill="none" xmlns="http://www.w3.org/2000/svg">
<path d="M163.067 41.9927H164.328L167.294 49.237H167.396L170.362 41.9927H171.623V50.72H170.635V44.0893H170.55L167.822 50.72H166.868L164.141 44.0893H164.055V50.72H163.067V41.9927ZM178.799 41.9927V50.72H177.742V41.9927H178.799ZM185.276 50.72H184.168L187.373 41.9927H188.464L191.668 50.72H190.56L187.952 43.3734H187.884L185.276 50.72ZM185.685 47.3109H190.151V48.2484H185.685V47.3109ZM197.028 41.9927H198.289L201.255 49.237H201.357L204.323 41.9927H205.584V50.72H204.596V44.0893H204.511L201.783 50.72H200.829L198.101 44.0893H198.016V50.72H197.028V41.9927ZM212.76 41.9927V50.72H211.703V41.9927H212.76ZM220.243 49.5268L220.175 49.987C220.126 50.3109 220.052 50.6575 219.953 51.0268C219.856 51.3961 219.756 51.7441 219.65 52.0708C219.545 52.3975 219.459 52.6575 219.391 52.8507H218.623C218.66 52.6688 218.709 52.4288 218.768 52.1305C218.828 51.8322 218.888 51.4984 218.947 51.1291C219.01 50.7626 219.061 50.3876 219.101 50.0041L219.152 49.5268H220.243ZM233.617 50.72V41.9927H238.85V42.9302H234.674V45.8791H238.458V46.8166H234.674V50.72H233.617ZM244.66 50.72V41.9927H245.717V49.7825H249.774V50.72H244.66ZM262.434 46.3563C262.434 47.2768 262.268 48.0722 261.936 48.7427C261.603 49.4132 261.147 49.9302 260.568 50.2938C259.988 50.6575 259.326 50.8393 258.582 50.8393C257.838 50.8393 257.176 50.6575 256.596 50.2938C256.017 49.9302 255.561 49.4132 255.228 48.7427C254.896 48.0722 254.73 47.2768 254.73 46.3563C254.73 45.4359 254.896 44.6404 255.228 43.97C255.561 43.2995 256.017 42.7825 256.596 42.4188C257.176 42.0552 257.838 41.8734 258.582 41.8734C259.326 41.8734 259.988 42.0552 260.568 42.4188C261.147 42.7825 261.603 43.2995 261.936 43.97C262.268 44.6404 262.434 45.4359 262.434 46.3563ZM261.411 46.3563C261.411 45.6007 261.285 44.9629 261.032 44.443C260.782 43.9231 260.443 43.5296 260.014 43.2626C259.588 42.9955 259.11 42.862 258.582 42.862C258.054 42.862 257.575 42.9955 257.146 43.2626C256.72 43.5296 256.38 43.9231 256.127 44.443C255.877 44.9629 255.752 45.6007 255.752 46.3563C255.752 47.112 255.877 47.7498 256.127 48.2697C256.38 48.7896 256.72 49.183 257.146 49.4501C257.575 49.7171 258.054 49.8507 258.582 49.8507C259.11 49.8507 259.588 49.7171 260.014 49.4501C260.443 49.183 260.782 48.7896 261.032 48.2697C261.285 47.7498 261.411 47.112 261.411 46.3563ZM268.211 50.72V41.9927H271.16C271.842 41.9927 272.402 42.1092 272.839 42.3421C273.277 42.5722 273.6 42.889 273.811 43.2924C274.021 43.6958 274.126 44.1546 274.126 44.6688C274.126 45.183 274.021 45.639 273.811 46.0367C273.6 46.4345 273.278 46.747 272.843 46.9742C272.409 47.1987 271.853 47.3109 271.177 47.3109H268.791V46.3563H271.143C271.609 46.3563 271.984 46.2882 272.268 46.1518C272.555 46.0154 272.762 45.8222 272.89 45.5722C273.021 45.3194 273.086 45.0183 273.086 44.6688C273.086 44.3194 273.021 44.014 272.89 43.7526C272.759 43.4913 272.551 43.2896 272.264 43.1475C271.977 43.0026 271.598 42.9302 271.126 42.9302H269.268V50.72H268.211ZM272.319 46.7995L274.467 50.72H273.24L271.126 46.7995H272.319ZM280.944 41.9927V50.72H279.887V41.9927H280.944ZM289.756 50.72H287.063V41.9927H289.875C290.722 41.9927 291.446 42.1674 292.049 42.5168C292.651 42.8634 293.112 43.362 293.433 44.0126C293.755 44.6603 293.915 45.4359 293.915 46.3393C293.915 47.2484 293.753 48.0311 293.429 48.6873C293.105 49.3407 292.634 49.8436 292.014 50.1958C291.395 50.5453 290.642 50.72 289.756 50.72ZM288.12 49.7825H289.688C290.409 49.7825 291.007 49.6433 291.482 49.3649C291.956 49.0864 292.31 48.6901 292.543 48.1759C292.776 47.6617 292.892 47.0495 292.892 46.3393C292.892 45.6347 292.777 45.0282 292.547 44.5197C292.317 44.0083 291.973 43.6163 291.516 43.3435C291.058 43.068 290.489 42.9302 289.807 42.9302H288.12V49.7825ZM299.636 50.72H298.528L301.732 41.9927H302.823L306.028 50.72H304.92L302.312 43.3734H302.243L299.636 50.72ZM300.045 47.3109H304.511V48.2484H300.045V47.3109Z" fill="white"/>
<path d="M94.7143 92.72H90.7598L96.7853 75.2654H101.541L107.558 92.72H103.604L99.2314 79.2541H99.095L94.7143 92.72ZM94.4672 85.8592H103.808V88.7399H94.4672V85.8592ZM112.501 75.2654V92.72H108.871V75.2654H112.501ZM118.32 75.2654V92.72H114.69V75.2654H118.32ZM131.401 83.362L128.077 83.5666C128.02 83.2825 127.898 83.0268 127.711 82.7995C127.523 82.5666 127.276 82.3819 126.969 82.2455C126.668 82.1035 126.307 82.0325 125.887 82.0325C125.324 82.0325 124.85 82.1518 124.463 82.3904C124.077 82.6234 123.884 82.9359 123.884 83.3279C123.884 83.6404 124.009 83.9046 124.259 84.1205C124.509 84.3364 124.938 84.5097 125.546 84.6404L127.915 85.1177C129.188 85.3791 130.137 85.7995 130.762 86.3791C131.387 86.9586 131.699 87.72 131.699 88.6632C131.699 89.5211 131.446 90.2739 130.941 90.9217C130.441 91.5694 129.753 92.0751 128.878 92.4387C128.009 92.7967 127.006 92.9757 125.87 92.9757C124.137 92.9757 122.756 92.6149 121.728 91.8933C120.705 91.166 120.105 90.1774 119.929 88.9274L123.5 88.7399C123.608 89.2683 123.87 89.6717 124.284 89.9501C124.699 90.2228 125.23 90.3592 125.878 90.3592C126.515 90.3592 127.026 90.237 127.412 89.9927C127.804 89.7427 128.003 89.4217 128.009 89.0296C128.003 88.7001 127.864 88.4302 127.591 88.22C127.319 88.0041 126.898 87.8393 126.33 87.7257L124.063 87.2739C122.784 87.0183 121.833 86.5751 121.208 85.9444C120.588 85.3137 120.279 84.5097 120.279 83.5325C120.279 82.6916 120.506 81.9671 120.961 81.3592C121.421 80.7512 122.066 80.2825 122.895 79.9529C123.73 79.6234 124.708 79.4586 125.827 79.4586C127.48 79.4586 128.782 79.808 129.73 80.5069C130.685 81.2058 131.242 82.1575 131.401 83.362ZM140.228 79.6291V82.3563H132.345V79.6291H140.228ZM134.135 76.4927H137.765V88.6972C137.765 89.0325 137.817 89.2938 137.919 89.4813C138.021 89.6632 138.163 89.791 138.345 89.8649C138.532 89.9387 138.748 89.9757 138.993 89.9757C139.163 89.9757 139.334 89.9614 139.504 89.933C139.675 89.8989 139.805 89.8734 139.896 89.8563L140.467 92.558C140.285 92.6149 140.03 92.6802 139.7 92.7541C139.371 92.8336 138.97 92.8819 138.498 92.8989C137.623 92.933 136.856 92.8166 136.197 92.5495C135.544 92.2825 135.035 91.8677 134.672 91.3052C134.308 90.7427 134.129 90.0325 134.135 89.1745V76.4927ZM145.607 92.9671C144.771 92.9671 144.027 92.8222 143.374 92.5325C142.72 92.237 142.203 91.8024 141.822 91.2285C141.447 90.6489 141.26 89.9274 141.26 89.0637C141.26 88.3364 141.393 87.7257 141.66 87.2313C141.928 86.737 142.291 86.3393 142.751 86.0382C143.212 85.737 143.734 85.5097 144.32 85.3563C144.91 85.2029 145.53 85.095 146.178 85.0325C146.939 84.9529 147.553 84.8791 148.018 84.8109C148.484 84.737 148.822 84.6291 149.033 84.487C149.243 84.345 149.348 84.1347 149.348 83.8563V83.8052C149.348 83.2654 149.178 82.8478 148.837 82.5524C148.501 82.2569 148.024 82.1092 147.405 82.1092C146.751 82.1092 146.232 82.2541 145.845 82.5438C145.459 82.8279 145.203 83.1859 145.078 83.6177L141.72 83.345C141.891 82.5495 142.226 81.862 142.726 81.2825C143.226 80.6972 143.871 80.2484 144.66 79.9359C145.456 79.6177 146.376 79.4586 147.422 79.4586C148.149 79.4586 148.845 79.5438 149.51 79.7143C150.18 79.8847 150.774 80.1489 151.291 80.5069C151.814 80.8649 152.226 81.3251 152.527 81.8876C152.828 82.4444 152.979 83.112 152.979 83.8904V92.72H149.535V90.9046H149.433C149.223 91.3137 148.942 91.6745 148.589 91.987C148.237 92.2938 147.814 92.5353 147.32 92.7114C146.825 92.8819 146.254 92.9671 145.607 92.9671ZM146.646 90.4614C147.18 90.4614 147.652 90.3563 148.061 90.1461C148.47 89.9302 148.791 89.6404 149.024 89.2768C149.257 88.9132 149.374 88.5012 149.374 88.041V86.6518C149.26 86.7257 149.104 86.7938 148.905 86.8563C148.712 86.9132 148.493 86.9671 148.249 87.0183C148.004 87.0637 147.76 87.1063 147.516 87.1461C147.271 87.1802 147.05 87.2114 146.851 87.2399C146.425 87.3024 146.053 87.4018 145.734 87.5382C145.416 87.6745 145.169 87.8592 144.993 88.0921C144.817 88.3194 144.729 88.6035 144.729 88.9444C144.729 89.4387 144.908 89.8166 145.266 90.0779C145.629 90.3336 146.089 90.4614 146.646 90.4614ZM162.038 79.6291V82.3563H154.155V79.6291H162.038ZM155.945 76.4927H159.575V88.6972C159.575 89.0325 159.627 89.2938 159.729 89.4813C159.831 89.6632 159.973 89.791 160.155 89.8649C160.342 89.9387 160.558 89.9757 160.803 89.9757C160.973 89.9757 161.144 89.9614 161.314 89.933C161.485 89.8989 161.615 89.8734 161.706 89.8563L162.277 92.558C162.095 92.6149 161.84 92.6802 161.51 92.7541C161.181 92.8336 160.78 92.8819 160.308 92.8989C159.433 92.933 158.666 92.8166 158.007 92.5495C157.354 92.2825 156.845 91.8677 156.482 91.3052C156.118 90.7427 155.939 90.0325 155.945 89.1745V76.4927ZM169.509 92.9757C168.162 92.9757 167.003 92.7029 166.032 92.1575C165.066 91.6063 164.321 90.8279 163.799 89.8222C163.276 88.8109 163.015 87.6149 163.015 86.2342C163.015 84.8876 163.276 83.7058 163.799 82.6887C164.321 81.6717 165.057 80.8791 166.006 80.3109C166.961 79.7427 168.08 79.4586 169.364 79.4586C170.228 79.4586 171.032 79.5978 171.776 79.8762C172.526 80.1489 173.179 80.5609 173.736 81.112C174.299 81.6632 174.736 82.3563 175.049 83.1916C175.361 84.0211 175.517 84.9927 175.517 86.1063V87.1035H164.463V84.8535H172.1C172.1 84.3308 171.986 83.8677 171.759 83.4643C171.532 83.0609 171.216 82.7455 170.813 82.5183C170.415 82.2853 169.952 82.1688 169.424 82.1688C168.872 82.1688 168.384 82.2967 167.958 82.5524C167.537 82.8024 167.208 83.1404 166.969 83.5666C166.73 83.987 166.608 84.4558 166.603 84.9728V87.112C166.603 87.7597 166.722 88.3194 166.961 88.791C167.205 89.2626 167.549 89.6262 167.992 89.8819C168.435 90.1376 168.961 90.2654 169.568 90.2654C169.972 90.2654 170.341 90.2086 170.676 90.095C171.012 89.9813 171.299 89.8109 171.537 89.5836C171.776 89.3563 171.958 89.0779 172.083 88.7484L175.441 88.97C175.27 89.7768 174.921 90.4813 174.392 91.0836C173.87 91.6802 173.193 92.1461 172.364 92.4813C171.54 92.8109 170.588 92.9757 169.509 92.9757ZM182.07 92.72V75.2654H193.831V78.308H185.76V82.4671H193.226V85.5097H185.76V89.6774H193.865V92.72H182.07ZM195.977 92.72V79.6291H199.437V81.9387H199.59C199.863 81.1717 200.318 80.5666 200.954 80.1234C201.59 79.6802 202.352 79.4586 203.238 79.4586C204.136 79.4586 204.9 79.683 205.531 80.1319C206.161 80.5751 206.582 81.1774 206.792 81.9387H206.928C207.195 81.1887 207.678 80.5893 208.377 80.1404C209.082 79.6859 209.914 79.4586 210.874 79.4586C212.096 79.4586 213.087 79.8478 213.849 80.6262C214.616 81.3989 214.999 82.4955 214.999 83.916V92.72H211.377V84.6319C211.377 83.9046 211.184 83.3592 210.798 82.9955C210.411 82.6319 209.928 82.4501 209.349 82.4501C208.69 82.4501 208.176 82.6603 207.806 83.0808C207.437 83.4955 207.252 84.0438 207.252 84.7257V92.72H203.732V84.5552C203.732 83.9132 203.548 83.4018 203.178 83.0211C202.815 82.6404 202.335 82.4501 201.738 82.4501C201.335 82.4501 200.971 82.5524 200.647 82.7569C200.329 82.9558 200.076 83.237 199.889 83.6007C199.701 83.9586 199.607 84.3791 199.607 84.862V92.72H195.977ZM217.147 97.6291V79.6291H220.727V81.8279H220.889C221.048 81.4757 221.278 81.1177 221.579 80.7541C221.886 80.3847 222.284 80.0779 222.772 79.8336C223.267 79.5836 223.88 79.4586 224.613 79.4586C225.568 79.4586 226.448 79.7086 227.255 80.2086C228.062 80.7029 228.707 81.4501 229.19 82.4501C229.673 83.4444 229.914 84.6916 229.914 86.1916C229.914 87.6518 229.679 88.8847 229.207 89.8904C228.741 90.8904 228.105 91.6489 227.298 92.166C226.497 92.6774 225.599 92.933 224.605 92.933C223.9 92.933 223.301 92.8166 222.806 92.5836C222.318 92.3507 221.917 92.058 221.605 91.7058C221.292 91.3478 221.054 90.987 220.889 90.6234H220.778V97.6291H217.147ZM220.701 86.1745C220.701 86.9529 220.809 87.6319 221.025 88.2114C221.241 88.791 221.554 89.2427 221.963 89.5666C222.372 89.8847 222.869 90.0438 223.454 90.0438C224.045 90.0438 224.545 89.8819 224.954 89.558C225.363 89.2285 225.673 88.7739 225.883 88.1944C226.099 87.6092 226.207 86.9359 226.207 86.1745C226.207 85.4188 226.102 84.7541 225.892 84.1802C225.681 83.6063 225.372 83.1575 224.963 82.8336C224.554 82.5097 224.051 82.3478 223.454 82.3478C222.863 82.3478 222.363 82.5041 221.954 82.8166C221.551 83.1291 221.241 83.5722 221.025 84.1461C220.809 84.72 220.701 85.3961 220.701 86.1745ZM235.245 75.2654V92.72H231.615V75.2654H235.245ZM243.349 92.9757C242.025 92.9757 240.88 92.6944 239.914 92.1319C238.954 91.5637 238.212 90.7739 237.69 89.7626C237.167 88.7455 236.905 87.5666 236.905 86.2257C236.905 84.8734 237.167 83.6916 237.69 82.6802C238.212 81.6632 238.954 80.8734 239.914 80.3109C240.88 79.7427 242.025 79.4586 243.349 79.4586C244.673 79.4586 245.815 79.7427 246.775 80.3109C247.741 80.8734 248.485 81.6632 249.008 82.6802C249.53 83.6916 249.792 84.8734 249.792 86.2257C249.792 87.5666 249.53 88.7455 249.008 89.7626C248.485 90.7739 247.741 91.5637 246.775 92.1319C245.815 92.6944 244.673 92.9757 243.349 92.9757ZM243.366 90.1632C243.968 90.1632 244.471 89.9927 244.874 89.6518C245.278 89.3052 245.582 88.8336 245.786 88.237C245.996 87.6404 246.101 86.9614 246.101 86.2001C246.101 85.4387 245.996 84.7597 245.786 84.1632C245.582 83.5666 245.278 83.095 244.874 82.7484C244.471 82.4018 243.968 82.2285 243.366 82.2285C242.758 82.2285 242.246 82.4018 241.832 82.7484C241.423 83.095 241.113 83.5666 240.903 84.1632C240.698 84.7597 240.596 85.4387 240.596 86.2001C240.596 86.9614 240.698 87.6404 240.903 88.237C241.113 88.8336 241.423 89.3052 241.832 89.6518C242.246 89.9927 242.758 90.1632 243.366 90.1632ZM253.252 97.6291C252.792 97.6291 252.36 97.5921 251.957 97.5183C251.559 97.4501 251.229 97.362 250.968 97.2541L251.786 94.5438C252.212 94.6745 252.596 94.7455 252.937 94.7569C253.283 94.7683 253.582 94.6887 253.832 94.5183C254.087 94.3478 254.295 94.058 254.454 93.6489L254.667 93.095L249.971 79.6291H253.789L256.499 89.2427H256.636L259.372 79.6291H263.215L258.127 94.1347C257.883 94.8393 257.551 95.4529 257.13 95.9757C256.715 96.5041 256.19 96.9103 255.553 97.1944C254.917 97.4842 254.15 97.6291 253.252 97.6291ZM269.897 92.9757C268.551 92.9757 267.392 92.7029 266.42 92.1575C265.454 91.6063 264.71 90.8279 264.187 89.8222C263.664 88.8109 263.403 87.6149 263.403 86.2342C263.403 84.8876 263.664 83.7058 264.187 82.6887C264.71 81.6717 265.446 80.8791 266.394 80.3109C267.349 79.7427 268.468 79.4586 269.752 79.4586C270.616 79.4586 271.42 79.5978 272.164 79.8762C272.914 80.1489 273.568 80.5609 274.125 81.112C274.687 81.6632 275.125 82.3563 275.437 83.1916C275.75 84.0211 275.906 84.9927 275.906 86.1063V87.1035H264.852V84.8535H272.488C272.488 84.3308 272.375 83.8677 272.147 83.4643C271.92 83.0609 271.605 82.7455 271.201 82.5183C270.804 82.2853 270.34 82.1688 269.812 82.1688C269.261 82.1688 268.772 82.2967 268.346 82.5524C267.926 82.8024 267.596 83.1404 267.357 83.5666C267.119 83.987 266.997 84.4558 266.991 84.9728V87.112C266.991 87.7597 267.11 88.3194 267.349 88.791C267.593 89.2626 267.937 89.6262 268.38 89.8819C268.823 90.1376 269.349 90.2654 269.957 90.2654C270.36 90.2654 270.73 90.2086 271.065 90.095C271.4 89.9813 271.687 89.8109 271.926 89.5836C272.164 89.3563 272.346 89.0779 272.471 88.7484L275.829 88.97C275.659 89.7768 275.309 90.4813 274.781 91.0836C274.258 91.6802 273.582 92.1461 272.752 92.4813C271.929 92.8109 270.977 92.9757 269.897 92.9757ZM283.521 92.9757C282.174 92.9757 281.015 92.7029 280.044 92.1575C279.078 91.6063 278.334 90.8279 277.811 89.8222C277.288 88.8109 277.027 87.6149 277.027 86.2342C277.027 84.8876 277.288 83.7058 277.811 82.6887C278.334 81.6717 279.069 80.8791 280.018 80.3109C280.973 79.7427 282.092 79.4586 283.376 79.4586C284.24 79.4586 285.044 79.5978 285.788 79.8762C286.538 80.1489 287.191 80.5609 287.748 81.112C288.311 81.6632 288.748 82.3563 289.061 83.1916C289.373 84.0211 289.53 84.9927 289.53 86.1063V87.1035H278.476V84.8535H286.112C286.112 84.3308 285.998 83.8677 285.771 83.4643C285.544 83.0609 285.228 82.7455 284.825 82.5183C284.427 82.2853 283.964 82.1688 283.436 82.1688C282.885 82.1688 282.396 82.2967 281.97 82.5524C281.549 82.8024 281.22 83.1404 280.981 83.5666C280.743 83.987 280.62 84.4558 280.615 84.9728V87.112C280.615 87.7597 280.734 88.3194 280.973 88.791C281.217 89.2626 281.561 89.6262 282.004 89.8819C282.447 90.1376 282.973 90.2654 283.581 90.2654C283.984 90.2654 284.353 90.2086 284.689 90.095C285.024 89.9813 285.311 89.8109 285.549 89.5836C285.788 89.3563 285.97 89.0779 286.095 88.7484L289.453 88.97C289.282 89.7768 288.933 90.4813 288.405 91.0836C287.882 91.6802 287.206 92.1461 286.376 92.4813C285.552 92.8109 284.601 92.9757 283.521 92.9757ZM296.082 92.72V75.2654H299.772V89.6774H307.255V92.72H296.082ZM314.826 92.9757C313.502 92.9757 312.357 92.6944 311.391 92.1319C310.431 91.5637 309.689 90.7739 309.166 89.7626C308.644 88.7455 308.382 87.5666 308.382 86.2257C308.382 84.8734 308.644 83.6916 309.166 82.6802C309.689 81.6632 310.431 80.8734 311.391 80.3109C312.357 79.7427 313.502 79.4586 314.826 79.4586C316.149 79.4586 317.291 79.7427 318.252 80.3109C319.218 80.8734 319.962 81.6632 320.485 82.6802C321.007 83.6916 321.269 84.8734 321.269 86.2257C321.269 87.5666 321.007 88.7455 320.485 89.7626C319.962 90.7739 319.218 91.5637 318.252 92.1319C317.291 92.6944 316.149 92.9757 314.826 92.9757ZM314.843 90.1632C315.445 90.1632 315.948 89.9927 316.351 89.6518C316.754 89.3052 317.058 88.8336 317.263 88.237C317.473 87.6404 317.578 86.9614 317.578 86.2001C317.578 85.4387 317.473 84.7597 317.263 84.1632C317.058 83.5666 316.754 83.095 316.351 82.7484C315.948 82.4018 315.445 82.2285 314.843 82.2285C314.235 82.2285 313.723 82.4018 313.308 82.7484C312.899 83.095 312.59 83.5666 312.379 84.1632C312.175 84.7597 312.073 85.4387 312.073 86.2001C312.073 86.9614 312.175 87.6404 312.379 88.237C312.59 88.8336 312.899 89.3052 313.308 89.6518C313.723 89.9927 314.235 90.1632 314.843 90.1632ZM331.304 87.1461V79.6291H334.935V92.72H331.449V90.3421H331.313C331.017 91.1092 330.526 91.7257 329.838 92.1916C329.157 92.6575 328.324 92.8904 327.341 92.8904C326.466 92.8904 325.696 92.6916 325.032 92.2938C324.367 91.8961 323.847 91.3308 323.472 90.5978C323.103 89.8649 322.915 88.987 322.909 87.9643V79.6291H326.54V87.3166C326.546 88.0893 326.753 88.7001 327.162 89.1489C327.571 89.5978 328.12 89.8222 328.807 89.8222C329.245 89.8222 329.654 89.7228 330.034 89.5239C330.415 89.3194 330.722 89.0183 330.955 88.6205C331.194 88.2228 331.31 87.7313 331.304 87.1461ZM340.75 85.1518V92.72H337.119V79.6291H340.579V81.9387H340.733C341.023 81.1774 341.508 80.5751 342.19 80.1319C342.872 79.683 343.699 79.4586 344.67 79.4586C345.579 79.4586 346.372 79.6575 347.048 80.0552C347.724 80.4529 348.25 81.0211 348.625 81.7597C349 82.4927 349.187 83.3677 349.187 84.3847V92.72H345.557V85.0325C345.562 84.2313 345.358 83.6063 344.943 83.1575C344.528 82.7029 343.957 82.4757 343.23 82.4757C342.741 82.4757 342.31 82.5808 341.935 82.791C341.565 83.0012 341.275 83.308 341.065 83.7114C340.861 84.1092 340.756 84.5893 340.75 85.1518ZM357.227 97.9018C356.05 97.9018 355.042 97.7399 354.201 97.416C353.366 97.0978 352.701 96.6632 352.207 96.112C351.712 95.5609 351.391 94.9416 351.244 94.2541L354.602 93.8024C354.704 94.0637 354.866 94.308 355.087 94.5353C355.309 94.7626 355.602 94.9444 355.965 95.0808C356.335 95.2228 356.783 95.2938 357.312 95.2938C358.102 95.2938 358.752 95.1007 359.264 94.7143C359.781 94.3336 360.039 93.6944 360.039 92.7967V90.4018H359.886C359.727 90.7654 359.488 91.1092 359.17 91.433C358.852 91.7569 358.443 92.0211 357.943 92.2257C357.443 92.4302 356.846 92.5325 356.153 92.5325C355.17 92.5325 354.275 92.3052 353.468 91.8507C352.667 91.3904 352.028 90.6887 351.55 89.7455C351.079 88.7967 350.843 87.5978 350.843 86.1489C350.843 84.666 351.085 83.4274 351.568 82.433C352.05 81.4387 352.693 80.6944 353.494 80.2001C354.3 79.7058 355.184 79.4586 356.144 79.4586C356.877 79.4586 357.491 79.5836 357.985 79.8336C358.479 80.0779 358.877 80.3847 359.178 80.7541C359.485 81.1177 359.721 81.4757 359.886 81.8279H360.022V79.6291H363.627V92.8478C363.627 93.9614 363.354 94.8933 362.809 95.6433C362.264 96.3933 361.508 96.9558 360.542 97.3308C359.582 97.7114 358.477 97.9018 357.227 97.9018ZM357.303 89.8052C357.889 89.8052 358.383 89.6603 358.786 89.3705C359.195 89.0751 359.508 88.6546 359.724 88.1092C359.945 87.558 360.056 86.8989 360.056 86.1319C360.056 85.3649 359.948 84.7001 359.732 84.1376C359.516 83.5694 359.204 83.1291 358.795 82.8166C358.386 82.5041 357.889 82.3478 357.303 82.3478C356.707 82.3478 356.204 82.5097 355.795 82.8336C355.386 83.1518 355.076 83.595 354.866 84.1632C354.656 84.7313 354.55 85.3876 354.55 86.1319C354.55 86.8876 354.656 87.541 354.866 88.0921C355.082 88.6376 355.391 89.0609 355.795 89.362C356.204 89.6575 356.707 89.8052 357.303 89.8052ZM371.762 92.9757C370.416 92.9757 369.257 92.7029 368.285 92.1575C367.319 91.6063 366.575 90.8279 366.052 89.8222C365.529 88.8109 365.268 87.6149 365.268 86.2342C365.268 84.8876 365.529 83.7058 366.052 82.6887C366.575 81.6717 367.311 80.8791 368.259 80.3109C369.214 79.7427 370.333 79.4586 371.617 79.4586C372.481 79.4586 373.285 79.5978 374.029 79.8762C374.779 80.1489 375.433 80.5609 375.99 81.112C376.552 81.6632 376.99 82.3563 377.302 83.1916C377.615 84.0211 377.771 84.9927 377.771 86.1063V87.1035H366.717V84.8535H374.353C374.353 84.3308 374.24 83.8677 374.012 83.4643C373.785 83.0609 373.47 82.7455 373.066 82.5183C372.669 82.2853 372.205 82.1688 371.677 82.1688C371.126 82.1688 370.637 82.2967 370.211 82.5524C369.791 82.8024 369.461 83.1404 369.223 83.5666C368.984 83.987 368.862 84.4558 368.856 84.9728V87.112C368.856 87.7597 368.975 88.3194 369.214 88.791C369.458 89.2626 369.802 89.6262 370.245 89.8819C370.688 90.1376 371.214 90.2654 371.822 90.2654C372.225 90.2654 372.595 90.2086 372.93 90.095C373.265 89.9813 373.552 89.8109 373.791 89.5836C374.029 89.3563 374.211 89.0779 374.336 88.7484L377.694 88.97C377.524 89.7768 377.174 90.4813 376.646 91.0836C376.123 91.6802 375.447 92.1461 374.617 92.4813C373.794 92.8109 372.842 92.9757 371.762 92.9757Z" fill="white"/>
<path d="M203.422 414.993V423.72H202.365V416.101H202.314L200.183 417.515V416.442L202.365 414.993H203.422ZM210.166 423.788C209.956 423.788 209.775 423.713 209.625 423.562C209.474 423.412 209.399 423.231 209.399 423.021C209.399 422.811 209.474 422.63 209.625 422.48C209.775 422.329 209.956 422.254 210.166 422.254C210.376 422.254 210.557 422.329 210.707 422.48C210.858 422.63 210.933 422.811 210.933 423.021C210.933 423.16 210.897 423.288 210.826 423.405C210.758 423.521 210.666 423.615 210.549 423.686C210.436 423.754 210.308 423.788 210.166 423.788ZM216.721 423.72V422.953L219.601 419.8C219.939 419.43 220.218 419.109 220.437 418.836C220.655 418.561 220.817 418.302 220.922 418.061C221.03 417.817 221.084 417.561 221.084 417.294C221.084 416.987 221.01 416.721 220.863 416.497C220.718 416.273 220.519 416.099 220.266 415.977C220.013 415.855 219.729 415.794 219.414 415.794C219.079 415.794 218.786 415.863 218.536 416.003C218.289 416.139 218.097 416.331 217.961 416.578C217.827 416.825 217.76 417.115 217.76 417.447H216.755C216.755 416.936 216.873 416.487 217.108 416.101C217.344 415.714 217.665 415.413 218.071 415.197C218.481 414.981 218.939 414.873 219.448 414.873C219.959 414.873 220.412 414.981 220.807 415.197C221.202 415.413 221.512 415.704 221.736 416.071C221.961 416.437 222.073 416.845 222.073 417.294C222.073 417.615 222.015 417.929 221.898 418.236C221.785 418.54 221.586 418.879 221.302 419.254C221.02 419.626 220.63 420.081 220.13 420.618L218.169 422.714V422.782H222.226V423.72H216.721ZM227.986 423.72V422.953L230.867 419.8C231.205 419.43 231.483 419.109 231.702 418.836C231.921 418.561 232.083 418.302 232.188 418.061C232.296 417.817 232.35 417.561 232.35 417.294C232.35 416.987 232.276 416.721 232.128 416.497C231.983 416.273 231.785 416.099 231.532 415.977C231.279 415.855 230.995 415.794 230.679 415.794C230.344 415.794 230.052 415.863 229.802 416.003C229.554 416.139 229.363 416.331 229.226 416.578C229.093 416.825 229.026 417.115 229.026 417.447H228.02C228.02 416.936 228.138 416.487 228.374 416.101C228.61 415.714 228.931 415.413 229.337 415.197C229.746 414.981 230.205 414.873 230.714 414.873C231.225 414.873 231.678 414.981 232.073 415.197C232.468 415.413 232.777 415.704 233.002 416.071C233.226 416.437 233.339 416.845 233.339 417.294C233.339 417.615 233.28 417.929 233.164 418.236C233.05 418.54 232.851 418.879 232.567 419.254C232.286 419.626 231.895 420.081 231.395 420.618L229.435 422.714V422.782H233.492V423.72H227.986ZM240.002 423.788C239.792 423.788 239.611 423.713 239.461 423.562C239.31 423.412 239.235 423.231 239.235 423.021C239.235 422.811 239.31 422.63 239.461 422.48C239.611 422.329 239.792 422.254 240.002 422.254C240.212 422.254 240.392 422.329 240.543 422.48C240.694 422.63 240.769 422.811 240.769 423.021C240.769 423.16 240.733 423.288 240.662 423.405C240.594 423.521 240.502 423.615 240.385 423.686C240.272 423.754 240.144 423.788 240.002 423.788ZM246.557 423.72V422.953L249.437 419.8C249.775 419.43 250.054 419.109 250.272 418.836C250.491 418.561 250.653 418.302 250.758 418.061C250.866 417.817 250.92 417.561 250.92 417.294C250.92 416.987 250.846 416.721 250.699 416.497C250.554 416.273 250.355 416.099 250.102 415.977C249.849 415.855 249.565 415.794 249.25 415.794C248.915 415.794 248.622 415.863 248.372 416.003C248.125 416.139 247.933 416.331 247.797 416.578C247.663 416.825 247.596 417.115 247.596 417.447H246.591C246.591 416.936 246.709 416.487 246.944 416.101C247.18 415.714 247.501 415.413 247.907 415.197C248.316 414.981 248.775 414.873 249.284 414.873C249.795 414.873 250.248 414.981 250.643 415.197C251.038 415.413 251.348 415.704 251.572 416.071C251.797 416.437 251.909 416.845 251.909 417.294C251.909 417.615 251.851 417.929 251.734 418.236C251.62 418.54 251.422 418.879 251.138 419.254C250.856 419.626 250.466 420.081 249.966 420.618L248.005 422.714V422.782H252.062V423.72H246.557ZM257.822 423.72V422.953L260.703 419.8C261.041 419.43 261.319 419.109 261.538 418.836C261.757 418.561 261.919 418.302 262.024 418.061C262.132 417.817 262.186 417.561 262.186 417.294C262.186 416.987 262.112 416.721 261.964 416.497C261.819 416.273 261.62 416.099 261.368 415.977C261.115 415.855 260.831 415.794 260.515 415.794C260.18 415.794 259.888 415.863 259.638 416.003C259.39 416.139 259.199 416.331 259.062 416.578C258.929 416.825 258.862 417.115 258.862 417.447H257.856C257.856 416.936 257.974 416.487 258.21 416.101C258.446 415.714 258.767 415.413 259.173 415.197C259.582 414.981 260.041 414.873 260.549 414.873C261.061 414.873 261.514 414.981 261.909 415.197C262.304 415.413 262.613 415.704 262.838 416.071C263.062 416.437 263.174 416.845 263.174 417.294C263.174 417.615 263.116 417.929 263 418.236C262.886 418.54 262.687 418.879 262.403 419.254C262.122 419.626 261.731 420.081 261.231 420.618L259.271 422.714V422.782H263.328V423.72H257.822Z" fill="white"/>
</svg>
