<svg width="121" height="36" viewBox="0 0 121 36" fill="none" xmlns="http://www.w3.org/2000/svg">
<g clip-path="url(#clip0_1_736)">
<g clip-path="url(#clip1_1_736)">
<path d="M44.1598 24.9052C42.5658 23.2182 41.7681 21.0599 41.7669 18.4302C41.7658 15.8006 42.5587 13.6737 44.1455 12.0497C45.729 10.4281 47.7242 9.61672 50.1314 9.61555C51.509 9.58513 52.8664 9.94472 54.0424 10.6516C55.1247 11.3059 56.0025 12.2415 56.5794 13.3552V9.8973H59.518V27.1522H56.5794V23.6312C56.0074 24.7609 55.1294 25.7129 54.0424 26.3822C52.8699 27.0984 51.511 27.4633 50.1314 27.4322C47.748 27.4334 45.7574 26.5911 44.1598 24.9052ZM54.8407 23.2235C55.9998 22.0499 56.5794 20.4889 56.5794 18.5405C56.5794 16.5921 55.9998 15.0311 54.8407 13.8575C54.3061 13.294 53.658 12.8463 52.9377 12.5431C52.2174 12.2401 51.4409 12.0881 50.6575 12.097C49.8794 12.0866 49.1074 12.2323 48.3881 12.525C47.669 12.8176 47.0179 13.2514 46.4744 13.7997C45.3154 14.9314 44.7358 16.4714 44.7358 18.4197C44.7358 20.3681 45.3207 21.9501 46.4904 23.1657C47.6614 24.3802 49.0558 24.9881 50.6735 24.9892C51.4548 24.9965 52.2288 24.8431 52.9464 24.5391C53.6639 24.235 54.3091 23.787 54.8407 23.2235Z" fill="#B9BED0"/>
<path d="M61.0184 9.89746H64.1153L69.4789 24.475L74.8744 9.89746H78.0033L71.1393 27.1525H67.8504L61.0184 9.89746Z" fill="#B9BED0"/>
<path d="M86.8459 27.4342C84.3359 27.4342 82.2926 26.6176 80.7163 24.9842C79.1399 23.3508 78.3524 21.1926 78.3536 18.5092C78.3536 15.8258 79.1518 13.6728 80.7483 12.05C82.3447 10.4271 84.4142 9.61572 86.9584 9.61572C89.5017 9.61572 91.545 10.3857 93.0875 11.9257C94.6309 13.4657 95.4009 15.4298 95.3992 17.818C95.4017 18.3861 95.3592 18.9537 95.2725 19.5155H81.3243C81.4073 21.234 81.9549 22.5902 82.9669 23.5842C83.9792 24.5782 85.2725 25.0758 86.8459 25.077C88.0384 25.077 89.0459 24.8151 89.8684 24.2912C90.6617 23.7907 91.2859 23.0687 91.66 22.2175H94.7892C94.2417 23.7191 93.2459 25.0226 91.9325 25.9572C90.585 26.9431 88.8892 27.4353 86.8459 27.4342ZM90.7717 13.4657C89.7292 12.4706 88.4367 11.973 86.8925 11.973C85.3475 11.973 84.0659 12.4601 83.0451 13.4342C82.0259 14.4072 81.4606 15.7425 81.3491 17.44H92.3717C92.3492 15.7868 91.8159 14.4621 90.7717 13.4657Z" fill="#B9BED0"/>
<path d="M100.64 9.89719V12.6972C101.831 10.6427 103.736 9.61602 106.353 9.61719C108.292 9.61602 109.912 10.2519 111.216 11.5247C112.52 12.7976 113.171 14.6059 113.171 16.9497V27.1522H110.281V17.4082C110.281 15.6699 109.855 14.3504 109.004 13.4497C108.153 12.5491 106.977 12.0981 105.475 12.0969C103.975 12.0969 102.794 12.5479 101.933 13.4497C101.071 14.3516 100.64 15.6711 100.64 17.4082V27.1522H97.7334V9.89719H100.64Z" fill="#B9BED0"/>
<path d="M119.038 26.6168C118.777 26.8725 118.443 27.0463 118.083 27.1162C117.72 27.1861 117.346 27.149 117.006 27.0096C116.664 26.8701 116.374 26.6345 116.17 26.3327C115.966 26.0308 115.856 25.6759 115.856 25.313C115.856 24.9503 115.966 24.5954 116.17 24.2936C116.374 23.9917 116.664 23.7561 117.006 23.6167C117.346 23.4772 117.72 23.4401 118.083 23.51C118.443 23.5799 118.777 23.7536 119.038 24.0093C119.386 24.357 119.58 24.8253 119.58 25.313C119.58 25.801 119.386 26.2692 119.038 26.6168Z" fill="#B9BED0"/>
<path d="M19.1447 31.1829H19.0095H18.8798C18.6718 31.1829 18.4549 31.1969 18.238 31.1969C14.062 31.198 10.0134 29.7815 6.77489 27.1863C3.53639 24.591 1.30613 20.9758 0.46022 16.9502C0.637999 27.2262 8.53136 35.5002 18.238 35.5002C27.9375 35.5002 35.822 27.2349 36.0158 16.9642C35.2101 20.8435 33.1139 24.3478 30.0584 26.9229C27.0029 29.498 23.1625 30.997 19.1447 31.1829Z" fill="#B9BED0"/>
<path d="M1.23889 11.4673C1.01489 11.4673 0.792665 11.4673 0.57222 11.4848C0.498032 12.1275 0.46064 12.7737 0.46022 13.4203C0.46022 23.0453 8.41936 30.8538 18.238 30.8538C18.462 30.8538 18.6824 30.8538 18.9047 30.838C18.978 30.1955 19.0154 29.5493 19.0167 28.9025C19.0167 19.274 11.0575 11.4673 1.23889 11.4673Z" fill="#B9BED0"/>
<path d="M35.9055 11.49C26.4994 11.945 19.0167 19.5663 19.0167 28.9025C19.0167 19.2775 11.0575 11.4673 1.23889 11.4673C1.01489 11.4673 0.792665 11.4673 0.57222 11.4848C0.498032 12.1275 0.46064 12.7737 0.46022 13.4203C0.46022 23.0453 8.41936 30.8538 18.238 30.8538C18.462 30.8538 18.6824 30.8538 18.9047 30.838C18.9794 30.838 19.054 30.838 19.1269 30.838C28.5331 30.383 36.0158 22.7618 36.0158 13.4255C36.0152 12.779 35.9784 12.1328 35.9055 11.49Z" fill="#B9BED0"/>
<path d="M35.9055 11.49C26.4994 11.945 19.0167 19.5663 19.0167 28.9025C19.0167 19.2775 11.0575 11.4673 1.23889 11.4673C1.01489 11.4673 0.792665 11.4673 0.57222 11.4848C0.498032 12.1275 0.46064 12.7737 0.46022 13.4203C0.46022 23.0453 8.41936 30.8538 18.238 30.8538C18.462 30.8538 18.6824 30.8538 18.9047 30.838C18.9794 30.838 19.054 30.838 19.1269 30.838C28.5331 30.383 36.0158 22.7618 36.0158 13.4255C36.0152 12.779 35.9784 12.1328 35.9055 11.49Z" fill="#B9BED0"/>
<path d="M18.238 13.1C21.7727 13.1 24.638 10.2794 24.638 6.8C24.638 3.32061 21.7727 0.5 18.238 0.5C14.7034 0.5 11.838 3.32061 11.838 6.8C11.838 10.2794 14.7034 13.1 18.238 13.1Z" fill="#B9BED0"/>
</g>
</g>
<defs>
<clipPath id="clip0_1_736">
<rect width="120" height="35" fill="white" transform="translate(0.0300293 0.5)"/>
</clipPath>
<clipPath id="clip1_1_736">
<rect width="120" height="35" fill="white" transform="translate(0.0300293 0.5)"/>
</clipPath>
</defs>
</svg>
