<svg width="21" height="21" viewBox="0 0 21 21" fill="none" xmlns="http://www.w3.org/2000/svg">
<g clip-path="url(#clip0_1_783)">
<path fill-rule="evenodd" clip-rule="evenodd" d="M19.83 5.18994C19.83 7.39908 18.0391 9.18994 15.83 9.18994C13.9662 9.18994 12.4001 7.91517 11.956 6.18994H3.79943C2.16789 6.18994 1.82999 5.74222 1.82999 5.18994C1.82999 4.63765 2.16789 4.18994 3.79943 4.18994H11.956C12.4001 2.46471 13.9662 1.18994 15.83 1.18994C18.0391 1.18994 19.83 2.9808 19.83 5.18994ZM17.83 5.18994C17.83 6.29451 16.9346 7.18994 15.83 7.18994C14.7254 7.18994 13.83 6.29451 13.83 5.18994C13.83 4.08537 14.7254 3.18994 15.83 3.18994C16.9346 3.18994 17.83 4.08537 17.83 5.18994Z" fill="#B9BED0"/>
<path fill-rule="evenodd" clip-rule="evenodd" d="M8.0007 15.1899H3.82999C2.17314 15.1899 1.82999 14.7422 1.82999 14.1899C1.82999 13.6376 2.17314 13.1899 3.82999 13.1899H8.0007C8.41253 12.0247 9.52377 11.1899 10.83 11.1899C12.1362 11.1899 13.2475 12.0247 13.6593 13.1899H17.83C19.4869 13.1899 19.83 13.6376 19.83 14.1899C19.83 14.7422 19.4869 15.1899 17.83 15.1899H13.6593C13.2475 16.3551 12.1362 17.1899 10.83 17.1899C9.52377 17.1899 8.41253 16.3551 8.0007 15.1899ZM9.82999 14.1899C9.82999 14.7422 10.2777 15.1899 10.83 15.1899C11.3823 15.1899 11.83 14.7422 11.83 14.1899C11.83 13.6376 11.3823 13.1899 10.83 13.1899C10.2777 13.1899 9.82999 13.6376 9.82999 14.1899Z" fill="#B9BED0"/>
</g>
<defs>
<clipPath id="clip0_1_783">
<rect width="20" height="20" fill="white" transform="translate(0.829987 0.189941)"/>
</clipPath>
</defs>
</svg>
