<svg width="21" height="21" viewBox="0 0 21 21" fill="none" xmlns="http://www.w3.org/2000/svg">
<path fill-rule="evenodd" clip-rule="evenodd" d="M1.15997 5.18994C1.15997 3.30432 1.15997 2.36151 1.74576 1.77573C2.33154 1.18994 3.27435 1.18994 5.15997 1.18994C7.04559 1.18994 7.9884 1.18994 8.57418 1.77573C9.15997 2.36151 9.15997 3.30432 9.15997 5.18994V6.18994C9.15997 8.07556 9.15997 9.01837 8.57418 9.60415C7.9884 10.1899 7.04559 10.1899 5.15997 10.1899C3.27435 10.1899 2.33154 10.1899 1.74576 9.60415C1.15997 9.01837 1.15997 8.07556 1.15997 6.18994V5.18994ZM3.15997 5.18994C3.15997 4.19059 3.16422 3.64228 3.21536 3.26189L3.21736 3.24733L3.23192 3.24533C3.61231 3.19419 4.16062 3.18994 5.15997 3.18994C6.15932 3.18994 6.70763 3.19419 7.08802 3.24533L7.10258 3.24733L7.10458 3.26189C7.15572 3.64228 7.15997 4.19059 7.15997 5.18994V6.18994C7.15997 7.18929 7.15572 7.7376 7.10458 8.11799L7.10258 8.13255L7.08802 8.13455C6.70763 8.18569 6.15932 8.18994 5.15997 8.18994C4.16062 8.18994 3.61231 8.18569 3.23192 8.13455L3.21736 8.13255L3.21536 8.11799C3.16422 7.7376 3.15997 7.18929 3.15997 6.18994V5.18994Z" fill="#B9BED0"/>
<path fill-rule="evenodd" clip-rule="evenodd" d="M11.16 15.1899C11.16 17.0755 11.16 18.0183 11.7458 18.6041C12.3316 19.1899 13.2744 19.1899 15.16 19.1899C17.0456 19.1899 17.9884 19.1899 18.5742 18.6041C19.16 18.0183 19.16 17.0755 19.16 15.1899V14.1899C19.16 12.3043 19.16 11.3615 18.5742 10.7757C17.9884 10.1899 17.0456 10.1899 15.16 10.1899C13.2744 10.1899 12.3316 10.1899 11.7458 10.7757C11.16 11.3615 11.16 12.3043 11.16 14.1899V15.1899ZM13.2154 17.1179L13.2174 17.1325L13.232 17.1345C13.6123 17.1857 14.1607 17.1899 15.16 17.1899C16.1593 17.1899 16.7077 17.1857 17.088 17.1345L17.1026 17.1325L17.1046 17.1179C17.1558 16.7376 17.16 16.1892 17.16 15.1899V14.1899C17.16 13.1906 17.1558 12.6422 17.1046 12.2619L17.1026 12.2473L17.088 12.2453C16.7077 12.1941 16.1593 12.1899 15.16 12.1899C14.1607 12.1899 13.6123 12.1941 13.232 12.2453L13.2174 12.2473L13.2154 12.2619C13.1642 12.6422 13.16 13.1906 13.16 14.1899V15.1899C13.16 16.1892 13.1642 16.7376 13.2154 17.1179Z" fill="#B9BED0"/>
<path fill-rule="evenodd" clip-rule="evenodd" d="M2.3946 12.3421C1.90455 12.5451 1.5152 12.9345 1.31221 13.4245C1.15997 13.7921 1.15997 14.258 1.15997 15.1899C1.15997 16.1218 1.15997 16.5877 1.31221 16.9553C1.5152 17.4453 1.90455 17.8347 2.3946 18.0377C2.76215 18.1899 3.22809 18.1899 4.15997 18.1899H6.15997C7.09185 18.1899 7.55779 18.1899 7.92534 18.0377C8.41539 17.8347 8.80474 17.4453 9.00773 16.9553C9.15997 16.5877 9.15997 16.1218 9.15997 15.1899C9.15997 14.258 9.15997 13.7921 9.00773 13.4245C8.80474 12.9345 8.41539 12.5451 7.92534 12.3421C7.55779 12.1899 7.09185 12.1899 6.15997 12.1899H4.15997C3.22809 12.1899 2.76215 12.1899 2.3946 12.3421ZM7.14371 14.2062L7.11814 14.2043C6.92309 14.191 6.65328 14.1899 6.15997 14.1899H4.15997C3.66666 14.1899 3.39685 14.191 3.2018 14.2043L3.17623 14.2062L3.17436 14.2317C3.16105 14.4268 3.15997 14.6966 3.15997 15.1899C3.15997 15.6832 3.16105 15.953 3.17436 16.1481L3.17623 16.1736L3.2018 16.1755C3.39685 16.1888 3.66666 16.1899 4.15997 16.1899H6.15997C6.65328 16.1899 6.92309 16.1888 7.11814 16.1755L7.1437 16.1736L7.14558 16.1481C7.15889 15.953 7.15997 15.6832 7.15997 15.1899C7.15997 14.6966 7.15889 14.4268 7.14558 14.2317L7.14371 14.2062Z" fill="#B9BED0"/>
<path fill-rule="evenodd" clip-rule="evenodd" d="M19.16 5.18994C19.16 6.12182 19.16 6.58776 19.0078 6.95531C18.8048 7.44536 18.4154 7.83471 17.9254 8.0377C17.5578 8.18994 17.0919 8.18994 16.16 8.18994H14.16C13.2281 8.18994 12.7622 8.18994 12.3946 8.0377C11.9046 7.83471 11.5152 7.44536 11.3122 6.95531C11.16 6.58776 11.16 6.12182 11.16 5.18994C11.16 4.25806 11.16 3.79212 11.3122 3.42457C11.5152 2.93452 11.9046 2.54517 12.3946 2.34218C12.7622 2.18994 13.2281 2.18994 14.16 2.18994H16.16C17.0919 2.18994 17.5578 2.18994 17.9254 2.34218C18.4154 2.54517 18.8048 2.93452 19.0078 3.42457C19.16 3.79212 19.16 4.25806 19.16 5.18994ZM17.16 5.18994C17.16 5.68325 17.1589 5.95306 17.1456 6.14811L17.1437 6.17367L17.1182 6.17555C16.9231 6.18886 16.6533 6.18994 16.16 6.18994H14.16C13.6667 6.18994 13.3969 6.18886 13.2018 6.17555L13.1763 6.17368L13.1744 6.14811C13.1611 5.95306 13.16 5.68325 13.16 5.18994C13.16 4.69663 13.1611 4.42682 13.1744 4.23177L13.1763 4.2062L13.2018 4.20433C13.3969 4.19102 13.6667 4.18994 14.16 4.18994H16.16C16.6533 4.18994 16.9231 4.19102 17.1182 4.20433L17.1437 4.2062L17.1456 4.23177C17.1589 4.42682 17.16 4.69663 17.16 5.18994Z" fill="#B9BED0"/>
</svg>
