<svg width="17" height="16" viewBox="0 0 17 16" fill="none" xmlns="http://www.w3.org/2000/svg">
<path d="M11.06 3.52001H12.66C12.8363 3.52001 12.98 3.37626 12.98 3.20001V1.04376C12.98 0.876265 12.8513 0.737515 12.6838 0.725015C12.175 0.688765 11.18 0.640015 10.465 0.640015C8.50001 0.640015 7.22001 1.81751 7.22001 3.95751V6.08001H4.98001C4.80376 6.08001 4.66001 6.22376 4.66001 6.40001V8.64001C4.66001 8.81626 4.80376 8.96001 4.98001 8.96001H7.22001V15.04C7.22001 15.2163 7.36376 15.36 7.54001 15.36H9.78001C9.95626 15.36 10.1 15.2163 10.1 15.04V8.96001H12.4113C12.5738 8.96001 12.7113 8.83751 12.7288 8.67501L12.9775 6.43501C12.9988 6.24626 12.8513 6.08001 12.66 6.08001H10.1V4.48001C10.1 3.95001 10.53 3.52001 11.06 3.52001Z" fill="#090B19"/>
</svg>
