<svg width="17" height="16" viewBox="0 0 17 16" fill="none" xmlns="http://www.w3.org/2000/svg">
<g clip-path="url(#clip0_1_1039)">
<path d="M15.1875 4.64C15.06 3.93625 14.4525 3.42375 13.7475 3.26375C12.6925 3.04 10.74 2.88 8.62751 2.88C6.51626 2.88 4.53251 3.04 3.47626 3.26375C2.77251 3.42375 2.16376 3.90375 2.03626 4.64C1.90751 5.44 1.78001 6.56 1.78001 8C1.78001 9.44 1.90751 10.56 2.06751 11.36C2.19626 12.0638 2.80376 12.5763 3.50751 12.7363C4.62751 12.96 6.54751 13.12 8.66001 13.12C10.7725 13.12 12.6925 12.96 13.8125 12.7363C14.5163 12.5763 15.1238 12.0963 15.2525 11.36C15.38 10.56 15.54 9.4075 15.5725 8C15.5075 6.56 15.3475 5.44 15.1875 4.64ZM6.90001 10.24V5.76L10.8038 8L6.90001 10.24Z" fill="#090B19"/>
</g>
<defs>
<clipPath id="clip0_1_1039">
<rect width="16" height="16" fill="white" transform="translate(0.820007)"/>
</clipPath>
</defs>
</svg>
