<svg width="17" height="16" viewBox="0 0 17 16" fill="none" xmlns="http://www.w3.org/2000/svg">
<g clip-path="url(#clip0_1_1024)">
<path d="M5.94001 0.959961C3.64501 0.959961 1.78001 2.82496 1.78001 5.11996V10.88C1.78001 13.175 3.64501 15.04 5.94001 15.04H11.7C13.995 15.04 15.86 13.175 15.86 10.88V5.11996C15.86 2.82496 13.995 0.959961 11.7 0.959961H5.94001ZM12.66 3.51996C13.0125 3.51996 13.3 3.80746 13.3 4.15996C13.3 4.51246 13.0125 4.79996 12.66 4.79996C12.3075 4.79996 12.02 4.51246 12.02 4.15996C12.02 3.80746 12.3075 3.51996 12.66 3.51996ZM8.82001 4.47996C10.7625 4.47996 12.34 6.05746 12.34 7.99996C12.34 9.94246 10.7625 11.52 8.82001 11.52C6.87751 11.52 5.30001 9.94246 5.30001 7.99996C5.30001 6.05746 6.87751 4.47996 8.82001 4.47996ZM8.82001 5.11996C7.23251 5.11996 5.94001 6.41246 5.94001 7.99996C5.94001 9.58746 7.23251 10.88 8.82001 10.88C10.4075 10.88 11.7 9.58746 11.7 7.99996C11.7 6.41246 10.4075 5.11996 8.82001 5.11996Z" fill="#090B19"/>
</g>
<defs>
<clipPath id="clip0_1_1024">
<rect width="16" height="16" fill="white" transform="translate(0.820007)"/>
</clipPath>
</defs>
</svg>
