<svg width="17" height="16" viewBox="0 0 17 16" fill="none" xmlns="http://www.w3.org/2000/svg">
<g clip-path="url(#clip0_1_1035)">
<path d="M3.38001 0.962524C2.27001 0.962524 1.46251 1.62877 1.46251 2.54377C1.46251 3.46252 2.28876 4.15627 3.38001 4.15627C4.49001 4.15627 5.29626 3.47877 5.29626 2.52502C5.24626 1.60627 4.45501 0.962524 3.38001 0.962524ZM1.78001 4.80002C1.60376 4.80002 1.46001 4.94377 1.46001 5.12002V14.4C1.46001 14.5763 1.60376 14.72 1.78001 14.72H4.98001C5.15626 14.72 5.30001 14.5763 5.30001 14.4V5.12002C5.30001 4.94377 5.15626 4.80002 4.98001 4.80002H1.78001ZM6.58001 4.80002C6.40376 4.80002 6.26001 4.94377 6.26001 5.12002V14.4C6.26001 14.5763 6.40376 14.72 6.58001 14.72H9.46001C9.63626 14.72 9.78001 14.5763 9.78001 14.4V9.44002C9.78001 8.68127 10.3625 8.06377 11.105 8.00627C11.1438 8.00002 11.1813 8.00002 11.22 8.00002C11.2588 8.00002 11.2963 8.00002 11.335 8.00627C12.0775 8.06377 12.66 8.68127 12.66 9.44002V14.4C12.66 14.5763 12.8038 14.72 12.98 14.72H15.86C16.0363 14.72 16.18 14.5763 16.18 14.4V8.96002C16.18 6.89002 15.0688 4.80002 12.5925 4.80002C11.4663 4.80002 10.615 5.23502 10.1 5.59627V5.12002C10.1 4.94377 9.95626 4.80002 9.78001 4.80002H6.58001Z" fill="#090B19"/>
</g>
<defs>
<clipPath id="clip0_1_1035">
<rect width="16" height="16" fill="white" transform="translate(0.820007)"/>
</clipPath>
</defs>
</svg>
