<svg width="121" height="34" viewBox="0 0 121 34" fill="none" xmlns="http://www.w3.org/2000/svg">
<g clip-path="url(#clip0_1_722)">
<g clip-path="url(#clip1_1_722)">
<mask id="mask0_1_722" style="mask-type:luminance" maskUnits="userSpaceOnUse" x="0" y="0" width="121" height="34">
<path d="M120.268 0.529785H0.272125V33.4698H120.268V0.529785Z" fill="white"/>
</mask>
<g mask="url(#mask0_1_722)">
<path d="M11.0866 13.4896C10.6032 12.4903 10.3877 11.3835 10.461 10.2767C10.5343 9.17002 10.8939 8.10095 11.5048 7.17332C12.1158 6.24567 12.9574 5.49098 13.9479 4.98248C14.9385 4.47398 16.0443 4.22897 17.1581 4.27122C18.2719 4.31346 19.3557 4.64152 20.3046 5.22357C21.2533 5.80563 22.0348 6.62188 22.573 7.59311C23.1112 8.56432 23.388 9.65753 23.3763 10.7666C23.3648 11.8756 23.0653 12.963 22.5068 13.9227L17.2899 22.9285L18.854 25.6246L24.8588 15.2749C26.044 13.1801 26.3509 10.7046 25.713 8.38589C25.0751 6.06713 23.5439 4.09237 21.4517 2.89027C19.3596 1.68818 16.8754 1.3558 14.5383 1.96528C12.2014 2.57477 10.2004 4.07694 8.96968 6.14566C8.31606 7.25708 7.90908 8.49483 7.77605 9.77572C7.643 11.0567 7.78702 12.351 8.19842 13.5719C8.61676 13.5198 9.03792 13.4935 9.45955 13.4928L11.0866 13.4896Z" fill="#B9BED0"/>
<path d="M32.1315 18.7274C31.4831 17.5947 30.5957 16.6152 29.5306 15.8564C28.4654 15.0976 27.2477 14.5773 25.9612 14.3315C25.7979 14.72 25.6106 15.0979 25.4001 15.463L24.5825 16.8712C25.6983 16.9395 26.7774 17.2945 27.7142 17.9017C28.651 18.5088 29.4136 19.3473 29.9275 20.3353C30.4414 21.3233 30.6891 22.427 30.6462 23.5387C30.6034 24.6505 30.2716 25.732 29.6831 26.678C29.0948 27.624 28.27 28.402 27.2893 28.936C26.3085 29.47 25.2053 29.7417 24.0874 29.7247C22.9696 29.7078 21.8753 29.4027 20.9113 28.8391C19.9473 28.2756 19.1467 27.4729 18.5877 26.5095L13.379 17.5333H10.2525L16.2407 27.8567C16.4466 28.2091 16.6749 28.548 16.9243 28.8713L16.9739 28.9355C17.8268 30.0279 18.9208 30.9105 20.1712 31.5147C21.4216 32.1191 22.7951 32.429 24.1853 32.4205C25.7955 32.4204 27.3773 31.9984 28.7718 31.1971C30.1663 30.3959 31.3242 29.2435 32.1293 27.8558C32.9344 26.4682 33.3583 24.8941 33.3585 23.2917C33.3585 21.6893 32.9347 20.1153 32.1298 18.7274H32.1315Z" fill="#B9BED0"/>
<path d="M14.8619 26.8256C14.2562 27.743 13.4247 28.4909 12.4466 28.9982C11.4683 29.5054 10.3759 29.755 9.27328 29.7234C8.17065 29.6917 7.0945 29.3797 6.14732 28.817C5.20013 28.2545 4.41341 27.46 3.86204 26.5093C3.29479 25.5312 2.99616 24.422 2.99616 23.2928C2.99616 22.1636 3.29476 21.0542 3.86198 20.0762C4.42921 19.0982 5.24508 18.2859 6.22763 17.721C7.2102 17.1561 8.32484 16.8585 9.45963 16.8579H19.8984L21.4576 14.1634H9.45963C8.24461 14.1472 7.0384 14.3713 5.91112 14.8228C4.78383 15.2742 3.75791 15.944 2.89291 16.7934C2.02791 17.6426 1.34108 18.6543 0.872298 19.77C0.403511 20.8856 0.162109 22.0827 0.162109 23.2919C0.162109 24.5011 0.403511 25.6982 0.872298 26.8139C1.34108 27.9294 2.02791 28.9413 2.89291 29.7905C3.75791 30.6398 4.78383 31.3096 5.91112 31.7611C7.0384 32.2126 8.24461 32.4367 9.45963 32.4204C10.7739 32.4281 12.074 32.1513 13.2701 31.6092C14.4661 31.0671 15.5295 30.2729 16.3863 29.2812C16.1185 28.9371 15.8741 28.5757 15.6547 28.1992L14.8619 26.8256Z" fill="#B9BED0"/>
<path d="M38.942 28.5286V5.02588H41.663V19.788L49.5198 12.2612H53.1214L45.3423 19.7139L53.3531 28.5286H49.6076L41.663 19.7995V28.5286H38.942Z" fill="#B9BED0"/>
<path d="M65.7351 24.8833C64.9054 26.2372 63.9073 27.2573 62.741 27.9435C61.5748 28.6297 60.5027 28.9728 59.5251 28.9728C58.1603 28.9728 56.9339 28.386 55.8458 27.2122C54.7579 26.0385 54.2139 24.2575 54.2139 21.8693C54.2139 19.9874 54.5753 18.3058 55.298 16.8246C55.95 15.4285 56.9491 14.2211 58.201 13.3165C59.4149 12.4567 60.9138 12.0269 62.698 12.0269C63.2144 12.0269 63.9934 12.0818 65.035 12.1916C65.1922 12.2113 65.4256 12.2344 65.7367 12.264H68.4628V23.7518C68.4628 25.7141 68.6724 27.3061 69.0917 28.5281H66.2581C65.992 27.328 65.8172 26.1096 65.7351 24.8833ZM65.7451 21.6453V14.6637C64.8665 14.4223 63.9603 14.2943 63.0488 14.2832C61.3684 14.2832 59.9687 14.93 58.8499 16.2234C57.731 17.5169 57.1716 19.2737 57.1716 21.4938C57.1716 23.1079 57.4772 24.325 58.0885 25.1452C58.6998 25.9654 59.396 26.3794 60.1773 26.387C61.0258 26.387 61.9637 25.9595 62.991 25.104C64.0182 24.2487 64.9363 23.0958 65.7451 21.6453Z" fill="#B9BED0"/>
<path d="M71.773 28.5285V12.2611H74.494V15.8136C75.2018 14.6351 76.1669 13.6298 77.3176 12.8721C78.4211 12.1639 79.5242 11.8098 80.6277 11.8098C81.5625 11.8008 82.4786 12.0666 83.2613 12.574C84.0166 13.0447 84.5977 13.747 84.9162 14.5751C85.233 15.4009 85.3914 17.0221 85.3914 19.4387V28.5285H82.6739V19.1027C82.6739 17.5414 82.5978 16.5103 82.4464 16.0096C82.3053 15.5243 82.0166 15.0945 81.619 14.7793C81.2473 14.4713 80.779 14.3012 80.2951 14.2984C79.3383 14.2984 78.3118 14.7497 77.215 15.6522C76.0901 16.5897 75.1674 17.7437 74.5022 19.0451V28.5285H71.773Z" fill="#B9BED0"/>
<path d="M91.0712 15.9176C91.9104 14.5527 92.9096 13.5282 94.0703 12.8443C95.2318 12.1601 96.2993 11.8154 97.2749 11.8099C98.6411 11.8099 99.8693 12.3967 100.961 13.5706C102.052 14.7443 102.599 16.5253 102.599 18.9135C102.599 20.7976 102.236 22.4792 101.51 23.9582C100.855 25.3528 99.856 26.5597 98.6058 27.4663C97.3973 28.3261 95.9008 28.7559 94.115 28.7559C93.6068 28.7559 92.8257 28.7009 91.7731 28.5912C91.6179 28.5731 91.3841 28.5484 91.0712 28.5188H88.3505V5.02588H91.0712V15.9176ZM91.0712 19.1374V26.1207C91.959 26.3597 92.8735 26.487 93.7927 26.4995C95.4412 26.4995 96.8287 25.8556 97.9549 24.5676C99.0819 23.2796 99.645 21.5184 99.645 19.284C99.645 17.6611 99.3376 16.4418 98.7235 15.626C98.1086 14.8101 97.4114 14.4017 96.631 14.4007C95.7816 14.4007 94.8475 14.8283 93.8288 15.6837C92.8108 16.5389 91.8916 17.6914 91.0712 19.1407V19.1374Z" fill="#B9BED0"/>
<path d="M116.078 24.8835C115.248 26.2374 114.252 27.2574 113.087 27.9436C111.921 28.6298 110.85 28.973 109.874 28.973C108.509 28.973 107.285 28.3856 106.199 27.2107C105.114 26.0358 104.571 24.2549 104.569 21.8679C104.569 19.9859 104.93 18.3043 105.651 16.8231C106.304 15.4274 107.302 14.2201 108.553 13.315C109.766 12.4553 111.265 12.0254 113.048 12.0254C113.567 12.0254 114.346 12.0803 115.387 12.1901C115.543 12.2099 115.776 12.2329 116.088 12.2626H118.811V23.752C118.811 25.7142 119.022 27.3063 119.44 28.5283H116.602C116.337 27.328 116.162 26.1098 116.078 24.8835ZM116.091 21.6455V14.6639C115.212 14.4226 114.306 14.2948 113.394 14.2834C111.713 14.2834 110.312 14.9301 109.195 16.2236C108.077 17.517 107.518 19.2738 107.517 21.494C107.517 23.1081 107.823 24.3252 108.434 25.1454C109.045 25.9656 109.74 26.3795 110.522 26.3872C111.372 26.3872 112.31 25.9596 113.335 25.1042C114.359 24.2488 115.279 23.0959 116.091 21.6455Z" fill="#B9BED0"/>
</g>
</g>
</g>
<defs>
<clipPath id="clip0_1_722">
<rect width="120" height="32.94" fill="white" transform="translate(0.269989 0.529785)"/>
</clipPath>
<clipPath id="clip1_1_722">
<rect width="119.996" height="32.94" fill="white" transform="translate(0.272125 0.529785)"/>
</clipPath>
</defs>
</svg>
