<svg width="119" height="42" viewBox="0 0 119 42" fill="none" xmlns="http://www.w3.org/2000/svg">
<g clip-path="url(#clip0_1_709)">
<g clip-path="url(#clip1_1_709)">
<mask id="mask0_1_709" style="mask-type:luminance" maskUnits="userSpaceOnUse" x="0" y="0" width="119" height="42">
<path d="M118.5 0H0.5V42H118.5V0Z" fill="white"/>
</mask>
<g mask="url(#mask0_1_709)">
<path d="M58.2219 21.2854C59.0334 21.9137 59.801 22.5957 60.5193 23.3266C61.3254 24.1401 62.1209 25.0171 62.9058 25.9579C63.6907 26.8987 64.4317 27.8535 65.129 28.8223C65.7653 29.6925 66.3558 30.5946 66.8982 31.525H62.9589C62.4206 30.6418 61.8357 29.7874 61.2066 28.9651C60.5433 28.0929 59.8496 27.2578 59.1256 26.4598C58.4327 25.6876 57.6991 24.9524 56.9279 24.2569C56.2602 23.6497 55.5514 23.0885 54.8065 22.5769V31.5271H51.423V4.31744L54.7874 3.74414V20.7142L56.6966 18.8242C57.3967 18.1341 58.084 17.4298 58.7586 16.7116C59.4332 15.9934 60.0696 15.3075 60.6678 14.6536C61.2703 13.9984 61.7885 13.4196 62.2228 12.9169H66.177C65.6225 13.5147 65.02 14.1714 64.3696 14.8867C63.719 15.6021 63.0437 16.3239 62.3437 17.0518C61.6464 17.7798 60.9393 18.5079 60.2223 19.2358L58.2219 21.2854Z" fill="#B9BED0"/>
<path d="M66.6479 34.9961C66.9811 35.1385 67.3261 35.2523 67.6789 35.3363C68.0862 35.442 68.5053 35.4964 68.9263 35.498C70.2528 35.498 71.2894 35.2053 72.0362 34.6202C72.7829 34.0349 73.4575 33.0864 74.0599 31.7747C72.541 28.9103 71.1268 25.8737 69.8172 22.6649C68.5147 19.4861 67.422 16.227 66.5461 12.9082H70.1524C70.4182 13.9835 70.7379 15.1412 71.1113 16.3817C71.4846 17.622 71.9004 18.8988 72.3586 20.2121C72.8168 21.5252 73.3118 22.8377 73.8435 24.1496C74.3753 25.4613 74.9297 26.7263 75.5067 27.9443C76.4231 25.4396 77.2186 22.9574 77.8932 20.4977C78.5678 18.0378 79.2042 15.5081 79.8024 12.9082H83.2729C82.4046 16.418 81.4409 19.7892 80.3815 23.0219C79.3223 26.2544 78.1768 29.2799 76.945 32.0981C76.5224 33.0617 76.0208 33.9895 75.4452 34.8722C74.974 35.5932 74.3946 36.239 73.7269 36.7874C73.0978 37.2877 72.3777 37.664 71.6055 37.8962C70.7425 38.1465 69.8467 38.2675 68.9475 38.2553C68.6694 38.2541 68.3917 38.2358 68.1159 38.2007C67.8253 38.165 67.5431 38.1167 67.2674 38.0579C66.9916 37.9991 66.737 37.9319 66.5079 37.8605C66.3414 37.8118 66.1785 37.7522 66.02 37.682L66.6479 34.9961Z" fill="#B9BED0"/>
<path d="M91.4549 12.4447C92.6162 12.4146 93.7736 12.5903 94.8724 12.9634C95.7161 13.2496 96.474 13.7401 97.0773 14.3905C97.6804 15.0408 98.1097 15.8301 98.326 16.6867C98.5748 17.627 98.6961 18.596 98.6866 19.5679V31.2019L97.4753 31.3993C96.9577 31.4833 96.3729 31.561 95.721 31.6324C95.069 31.7038 94.3618 31.7697 93.5996 31.8298C92.8402 31.8886 92.0871 31.918 91.3404 31.918C90.3543 31.9265 89.371 31.8187 88.4108 31.5967C87.5794 31.4095 86.793 31.0627 86.0964 30.5761C85.4376 30.1019 84.9141 29.4666 84.5775 28.7323C84.1934 27.8641 84.0081 26.9225 84.0345 25.975C84.0101 25.0526 84.2295 24.1397 84.6709 23.3269C85.082 22.5973 85.6723 21.982 86.387 21.5377C87.1669 21.0618 88.0238 20.7222 88.9199 20.5339C89.9167 20.3161 90.9348 20.2084 91.9556 20.2126C92.295 20.2126 92.6429 20.2315 93.0056 20.2672C93.3684 20.3029 93.7099 20.3491 94.0366 20.41C94.3633 20.4709 94.6454 20.5234 94.8851 20.5696C95.1249 20.6158 95.2946 20.6536 95.3921 20.6788V19.7401C95.3916 19.1928 95.3312 18.647 95.2118 18.1126C95.0993 17.5951 94.8773 17.1069 94.5606 16.6804C94.2245 16.2453 93.7831 15.9008 93.2772 15.6787C92.6059 15.4027 91.8821 15.2744 91.1558 15.3028C90.1832 15.2948 89.2119 15.3742 88.2538 15.5401C87.6187 15.6427 86.9951 15.8051 86.3913 16.0252L85.9903 13.2679C86.6912 13.0054 87.4188 12.8195 88.1605 12.7135C89.2483 12.5272 90.3509 12.4372 91.4549 12.4447ZM91.7434 29.1271C92.5389 29.1271 93.2453 29.1082 93.8648 29.0725C94.3821 29.0502 94.8967 28.9841 95.4028 28.8751V23.3269C95.0274 23.1711 94.6318 23.0684 94.2275 23.0224C93.5748 22.931 92.916 22.8889 92.2568 22.8964C91.7182 22.8993 91.1805 22.9356 90.6467 23.0056C90.1071 23.0694 89.5818 23.2204 89.0917 23.4529C88.6335 23.6704 88.2315 23.9885 87.9165 24.3832C87.5852 24.8336 87.4197 25.3828 87.4477 25.9393C87.4477 27.135 87.8331 27.9645 88.6038 28.4278C89.3746 28.8912 90.4212 29.1243 91.7434 29.1271Z" fill="#B9BED0"/>
<path d="M102.808 13.4398C103.581 13.2481 104.605 13.045 105.882 12.8308C107.341 12.603 108.817 12.4955 110.295 12.5095C111.788 12.5095 113.03 12.7195 114.02 13.1395C114.948 13.5132 115.764 14.1179 116.387 14.8951C117 15.6935 117.427 16.6165 117.637 17.5978C117.886 18.7381 118.007 19.9023 117.997 21.0691V31.5229H114.629V21.7873C114.642 20.8022 114.563 19.8179 114.393 18.8473C114.28 18.1436 114.014 17.4722 113.614 16.8796C113.255 16.3793 112.75 15.9985 112.168 15.7876C111.448 15.5421 110.689 15.4268 109.928 15.4474C109.565 15.4474 109.191 15.46 108.805 15.4831C108.419 15.5062 108.052 15.5356 107.702 15.5713C107.352 15.607 107.038 15.649 106.763 15.6973L106.166 15.8044V31.5208H102.808V13.4398Z" fill="#B9BED0"/>
<path d="M21.1255 21.9516C18.44 19.2355 15.2335 17.0782 11.694 15.6062C8.15456 14.1341 4.35366 13.377 0.514526 13.3794V28.6506C3.4024 28.654 6.21312 29.5737 8.53436 31.2744C10.8556 32.9752 12.5652 35.3675 13.4123 38.1006C14.227 32.0552 16.9228 26.4111 21.1255 21.9516Z" fill="#B9BED0"/>
<path d="M42.9121 13.3794V28.6506C39.3368 28.6551 35.9094 30.063 33.3814 32.5656C30.8533 35.0682 29.4312 38.4611 29.4267 42.0003H14.0002C14.0002 26.2188 26.9702 13.3794 42.9121 13.3794Z" fill="#B9BED0"/>
<path d="M21.7135 15.12C25.9313 15.12 29.3504 11.7353 29.3504 7.56C29.3504 3.38473 25.9313 0 21.7135 0C17.4957 0 14.0767 3.38473 14.0767 7.56C14.0767 11.7353 17.4957 15.12 21.7135 15.12Z" fill="#B9BED0"/>
</g>
</g>
</g>
<defs>
<clipPath id="clip0_1_709">
<rect width="118" height="42" fill="white" transform="translate(0.5)"/>
</clipPath>
<clipPath id="clip1_1_709">
<rect width="118" height="42" fill="white" transform="translate(0.5)"/>
</clipPath>
</defs>
</svg>
