<svg width="21" height="21" viewBox="0 0 21 21" fill="none" xmlns="http://www.w3.org/2000/svg">
<g clip-path="url(#clip0_1_770)">
<path d="M17.5 3.18994C19.1569 3.18994 19.5 2.74222 19.5 2.18994C19.5 1.63765 19.1569 1.18994 17.5 1.18994H5.5C3.84315 1.18994 3.5 1.63765 3.5 2.18994C3.5 2.74222 3.84315 3.18994 5.5 3.18994H17.5Z" fill="#B9BED0"/>
<path d="M17.5 11.1899C19.1569 11.1899 19.5 10.7422 19.5 10.1899C19.5 9.63765 19.1569 9.18994 17.5 9.18994H13.5C11.8431 9.18994 11.5 9.63765 11.5 10.1899C11.5 10.7422 11.8431 11.1899 13.5 11.1899H17.5Z" fill="#B9BED0"/>
<path d="M19.5 18.1899C19.5 18.7422 19.1569 19.1899 17.5 19.1899H5.5C3.84315 19.1899 3.5 18.7422 3.5 18.1899C3.5 17.6376 3.84315 17.1899 5.5 17.1899H17.5C19.1569 17.1899 19.5 17.6376 19.5 18.1899Z" fill="#B9BED0"/>
<path fill-rule="evenodd" clip-rule="evenodd" d="M1.5 10.1899C1.5 8.30432 1.5 7.36151 2.08579 6.77573C2.67157 6.18994 3.61438 6.18994 5.5 6.18994C7.38562 6.18994 8.32843 6.18994 8.91421 6.77573C9.5 7.36151 9.5 8.30432 9.5 10.1899C9.5 12.0755 9.5 13.0183 8.91421 13.6041C8.32843 14.1899 7.38562 14.1899 5.5 14.1899C3.61438 14.1899 2.67157 14.1899 2.08579 13.6041C1.5 13.0183 1.5 12.0755 1.5 10.1899ZM5.5 12.1899C4.50065 12.1899 3.93777 12.1837 3.55739 12.1325C3.50625 11.7521 3.5 11.1892 3.5 10.1899C3.5 9.19059 3.50625 8.62771 3.55739 8.24733C3.93777 8.19618 4.50065 8.18994 5.5 8.18994C6.49935 8.18994 7.06223 8.19618 7.44261 8.24733C7.49375 8.62771 7.5 9.19059 7.5 10.1899C7.5 11.1892 7.49375 11.7521 7.44261 12.1325C7.06223 12.1837 6.49935 12.1899 5.5 12.1899Z" fill="#B9BED0"/>
</g>
<defs>
<clipPath id="clip0_1_770">
<rect width="20" height="20" fill="white" transform="translate(0.5 0.189941)"/>
</clipPath>
</defs>
</svg>
