<svg width="121" height="36" viewBox="0 0 121 36" fill="none" xmlns="http://www.w3.org/2000/svg">
<g clip-path="url(#clip0_1_748)">
<g clip-path="url(#clip1_1_748)">
<path d="M18.6511 0C8.79244 0 0.799988 8.05882 0.799988 17.9997C0.799988 27.9416 8.79244 36 18.6511 36C28.5102 36 36.5022 27.9416 36.5022 17.9997C36.5022 8.05942 28.5107 0.00085911 18.651 0.00085911L18.6511 0ZM26.8375 25.9607C26.517 26.491 25.8318 26.6571 25.3077 26.334C21.1157 23.7507 15.8394 23.1671 9.62569 24.5984C9.02689 24.7368 8.43004 24.3583 8.29362 23.7547C8.15654 23.151 8.53024 22.5491 9.13046 22.4116C15.9305 20.844 21.7633 21.5187 26.4686 24.4178C26.9929 24.7424 27.1595 25.432 26.8375 25.9607ZM29.0225 21.0602C28.6188 21.7208 27.7622 21.928 27.108 21.5224C22.3107 18.5489 14.9955 17.6876 9.31999 19.4248C8.58394 19.6489 7.80653 19.2307 7.58313 18.4898C7.36144 17.7476 7.77647 16.9652 8.51126 16.7395C14.9943 14.756 23.0536 15.7168 28.5639 19.1311C29.2184 19.5374 29.4253 20.4012 29.0225 21.0602ZM29.2101 15.9567C23.4559 12.5109 13.9645 12.1941 8.47136 13.8751C7.5893 14.1449 6.65648 13.6428 6.38918 12.7534C6.12187 11.8635 6.6194 10.9236 7.50212 10.6532C13.8078 8.72302 24.2902 9.09592 30.9141 13.0609C31.7075 13.5357 31.9677 14.569 31.4976 15.3679C31.0286 16.1679 30.001 16.4317 29.2101 15.9567ZM49.3671 16.617C46.2849 15.8758 45.7361 15.3557 45.7361 14.2627C45.7361 13.2301 46.7003 12.5352 48.1341 12.5352C49.5239 12.5352 50.9019 13.0629 52.3468 14.1492C52.3905 14.1821 52.4453 14.1952 52.4993 14.1866C52.5532 14.1784 52.6009 14.1486 52.6326 14.1036L54.1375 11.9645C54.1993 11.8764 54.1824 11.755 54.0991 11.6877C52.3794 10.2964 50.4431 9.61995 48.1797 9.61995C44.8518 9.61995 42.5271 11.6337 42.5271 14.515C42.5271 17.6048 44.5324 18.6989 47.9976 19.5434C50.947 20.2284 51.4447 20.8023 51.4447 21.8282C51.4447 22.9651 50.4382 23.6718 48.8184 23.6718C47.0192 23.6718 45.5517 23.0607 43.9102 21.6273C43.8695 21.5918 43.8136 21.5757 43.7621 21.5787C43.7077 21.5832 43.6581 21.6086 43.6235 21.6505L41.9361 23.6754C41.8653 23.7595 41.8743 23.885 41.9561 23.9577C43.8661 25.677 46.2151 26.5851 48.7501 26.5851C52.3362 26.5851 54.6535 24.6094 54.6535 21.5514C54.66 18.9699 53.1273 17.5406 49.3734 16.6198L49.3671 16.617ZM62.7666 13.5519C61.2123 13.5519 59.9373 14.1692 58.8859 15.4341V14.0103C58.8859 13.8979 58.7956 13.8064 58.6843 13.8064H55.9244C55.8129 13.8064 55.7228 13.8979 55.7228 14.0103V29.8305C55.7228 29.9429 55.8129 30.0345 55.9244 30.0345H58.6843C58.7956 30.0345 58.8859 29.9429 58.8859 29.8305V24.8368C59.9375 26.0267 61.2126 26.6081 62.7666 26.6081C65.6548 26.6081 68.5785 24.3663 68.5785 20.0807C68.5828 15.7942 65.6582 13.5517 62.7698 13.5517L62.7666 13.5519ZM65.3694 20.0807C65.3694 22.2631 64.0362 23.7859 62.1273 23.7859C60.2402 23.7859 58.8166 22.1938 58.8166 20.0807C58.8166 17.9679 60.2402 16.3756 62.1273 16.3756C64.0053 16.3754 65.3694 17.9335 65.3694 20.0807ZM76.0722 13.5519C72.3529 13.5519 69.4389 16.4398 69.4389 20.1274C69.4389 23.7747 72.3329 26.6324 76.0265 26.6324C79.7592 26.6324 82.6827 23.7541 82.6827 20.0807C82.6827 16.4201 79.7795 13.5519 76.0722 13.5519ZM76.0722 23.8076C74.094 23.8076 72.6025 22.2048 72.6025 20.0797C72.6025 17.9455 74.0424 16.3968 76.0265 16.3968C78.0177 16.3968 79.5192 17.9997 79.5192 20.1263C79.5192 22.26 78.0695 23.8076 76.0722 23.8076ZM90.6252 13.8064H87.5885V10.6755C87.5885 10.5633 87.4985 10.4718 87.3867 10.4718H84.6275C84.5157 10.4718 84.425 10.5633 84.425 10.6755V13.8064H83.0982C82.9872 13.8064 82.8972 13.8979 82.8972 14.0104V16.402C82.8972 16.5142 82.9872 16.606 83.0982 16.606H84.425V22.7944C84.425 25.2952 85.6595 26.5632 88.094 26.5632C89.084 26.5632 89.9052 26.3571 90.6792 25.9145C90.7422 25.879 90.7812 25.8107 90.7812 25.738V23.4605C90.7812 23.3902 90.7452 23.3238 90.6852 23.2871C90.6252 23.249 90.5502 23.2471 90.4887 23.2778C89.957 23.5476 89.4432 23.672 88.8687 23.672C87.983 23.672 87.5885 23.2666 87.5885 22.3581V16.6071H90.6252C90.737 16.6071 90.8262 16.5155 90.8262 16.4031V14.0117C90.8307 13.8992 90.7415 13.8077 90.6282 13.8077L90.6252 13.8064ZM101.207 13.8186V13.4341C101.207 12.3028 101.637 11.7984 102.602 11.7984C103.176 11.7984 103.639 11.9136 104.157 12.0877C104.22 12.1079 104.286 12.0978 104.339 12.0593C104.391 12.0208 104.422 11.9592 104.422 11.8938V9.54877C104.422 9.45915 104.365 9.37987 104.28 9.3534C103.732 9.18937 103.033 9.02108 101.985 9.02108C99.4362 9.02108 98.0892 10.4685 98.0892 13.2054V13.7943H96.7632C96.6522 13.7943 96.5607 13.8859 96.5607 13.9981V16.402C96.5607 16.5142 96.6522 16.606 96.7632 16.606H98.0892V26.1513C98.0892 26.2637 98.1792 26.3553 98.2902 26.3553H101.05C101.162 26.3553 101.253 26.2637 101.253 26.1513V16.6066H103.83L107.776 26.1496C107.328 27.1523 106.888 27.3518 106.286 27.3518C105.8 27.3518 105.288 27.2054 104.765 26.9165C104.715 26.8892 104.656 26.8847 104.604 26.9013C104.551 26.92 104.507 26.9595 104.484 27.0111L103.548 29.0804C103.504 29.1782 103.542 29.293 103.636 29.3437C104.612 29.8769 105.493 30.1046 106.584 30.1046C108.621 30.1046 109.747 29.1474 110.741 26.5724L115.528 14.0972C115.553 14.0344 115.545 13.9635 115.507 13.9078C115.47 13.8526 115.408 13.8193 115.341 13.8193H112.468C112.382 13.8193 112.305 13.8745 112.277 13.956L109.333 22.4329L106.11 13.9504C106.08 13.8715 106.005 13.8193 105.921 13.8193H101.206L101.207 13.8186ZM95.072 13.8064H92.312C92.2002 13.8064 92.1095 13.8979 92.1095 14.0104V26.1513C92.1095 26.2638 92.2002 26.3553 92.312 26.3553H95.072C95.183 26.3553 95.2745 26.2638 95.2745 26.1513V14.0112C95.2745 13.9844 95.2692 13.9578 95.2587 13.933C95.249 13.9082 95.234 13.8857 95.2152 13.8668C95.1965 13.8478 95.174 13.8328 95.1492 13.8226C95.1245 13.8124 95.0982 13.8071 95.072 13.8072V13.8064ZM93.7077 8.27827C92.6142 8.27827 91.727 9.1707 91.727 10.2732C91.727 11.3762 92.6142 12.2698 93.7077 12.2698C94.8005 12.2698 95.687 11.3762 95.687 10.2732C95.687 9.17093 94.7997 8.27827 93.7077 8.27827ZM117.885 17.7099C116.793 17.7099 115.942 16.8254 115.942 15.7514C115.942 14.6773 116.803 13.7827 117.895 13.7827C118.987 13.7827 119.837 14.667 119.837 15.7402C119.837 16.8143 118.976 17.7099 117.884 17.7099H117.885ZM117.895 13.9775C116.901 13.9775 116.148 14.7749 116.148 15.7514C116.148 16.7274 116.895 17.5141 117.885 17.5141C118.88 17.5141 119.634 16.7173 119.634 15.7402C119.634 14.7642 118.886 13.9775 117.896 13.9775H117.895ZM118.326 15.9416L118.875 16.7171H118.412L117.918 16.0057H117.492V16.7171H117.105V14.6614H118.014C118.487 14.6614 118.799 14.9058 118.799 15.3172C118.8 15.6542 118.607 15.8601 118.327 15.9416H118.326ZM117.998 15.0141H117.492V15.6643H117.998C118.25 15.6643 118.401 15.5399 118.401 15.3389C118.401 15.1274 118.249 15.0141 117.998 15.0141Z" fill="#B9BED0"/>
</g>
</g>
<defs>
<clipPath id="clip0_1_748">
<rect width="120" height="36" fill="white" transform="translate(0.799988)"/>
</clipPath>
<clipPath id="clip1_1_748">
<rect width="120" height="36" fill="white" transform="translate(0.799988)"/>
</clipPath>
</defs>
</svg>
